<mxfile host="65bd71144e">
    <diagram id="-VZcRbZ8ToZd1Hg5aknI" name="Page-1">
        <mxGraphModel dx="1209" dy="784" grid="1" gridSize="10" guides="1" tooltips="1" connect="1" arrows="1" fold="1" page="1" pageScale="1" pageWidth="850" pageHeight="1100" math="0" shadow="0">
            <root>
                <mxCell id="0"/>
                <mxCell id="1" parent="0"/>
                <mxCell id="2" value="main task/&lt;br&gt;project name" style="whiteSpace=wrap;html=1;aspect=fixed;" parent="1" vertex="1">
                    <mxGeometry x="120" y="130" width="80" height="80" as="geometry"/>
                </mxCell>
                <mxCell id="4" value="Sub" style="whiteSpace=wrap;html=1;aspect=fixed;container=1;" parent="1" vertex="1">
                    <mxGeometry x="270" y="370" width="80" height="80" as="geometry"/>
                </mxCell>
                <mxCell id="5" value="" style="endArrow=none;html=1;entryX=0;entryY=0;entryDx=0;entryDy=0;" edge="1" parent="1" source="2" target="4">
                    <mxGeometry width="50" height="50" relative="1" as="geometry">
                        <mxPoint x="400" y="430" as="sourcePoint"/>
                        <mxPoint x="450" y="380" as="targetPoint"/>
                    </mxGeometry>
                </mxCell>
                <mxCell id="6" value="array&amp;nbsp;&lt;br&gt;ref" style="text;html=1;align=center;verticalAlign=middle;resizable=0;points=[];autosize=1;strokeColor=none;fillColor=none;" vertex="1" parent="1">
                    <mxGeometry x="220" y="280" width="50" height="40" as="geometry"/>
                </mxCell>
                <mxCell id="9" value="" style="whiteSpace=wrap;html=1;aspect=fixed;container=1;" vertex="1" parent="1">
                    <mxGeometry x="470" y="220" width="80" height="80" as="geometry"/>
                </mxCell>
                <mxCell id="10" value="array&amp;nbsp;&lt;br&gt;ref" style="text;html=1;align=center;verticalAlign=middle;resizable=0;points=[];autosize=1;strokeColor=none;fillColor=none;" vertex="1" parent="1">
                    <mxGeometry x="360" y="170" width="50" height="40" as="geometry"/>
                </mxCell>
                <mxCell id="11" value="" style="endArrow=none;html=1;exitX=1;exitY=0.5;exitDx=0;exitDy=0;entryX=0;entryY=0.25;entryDx=0;entryDy=0;" edge="1" parent="1" source="2" target="9">
                    <mxGeometry width="50" height="50" relative="1" as="geometry">
                        <mxPoint x="290" y="230" as="sourcePoint"/>
                        <mxPoint x="340" y="180" as="targetPoint"/>
                    </mxGeometry>
                </mxCell>
                <mxCell id="12" value="d" style="whiteSpace=wrap;html=1;aspect=fixed;" vertex="1" parent="1">
                    <mxGeometry x="250" y="650" width="80" height="80" as="geometry"/>
                </mxCell>
                <mxCell id="13" value="" style="whiteSpace=wrap;html=1;aspect=fixed;container=1;" vertex="1" parent="1">
                    <mxGeometry x="380" y="660" width="80" height="80" as="geometry"/>
                </mxCell>
                <mxCell id="14" value="d" style="whiteSpace=wrap;html=1;aspect=fixed;" vertex="1" parent="1">
                    <mxGeometry x="620" y="610" width="80" height="80" as="geometry"/>
                </mxCell>
                <mxCell id="15" value="" style="endArrow=none;html=1;exitX=0.375;exitY=-0.05;exitDx=0;exitDy=0;exitPerimeter=0;entryX=0.5;entryY=0;entryDx=0;entryDy=0;" edge="1" parent="1" source="12" target="13">
                    <mxGeometry width="50" height="50" relative="1" as="geometry">
                        <mxPoint x="400" y="460" as="sourcePoint"/>
                        <mxPoint x="510" y="590" as="targetPoint"/>
                        <Array as="points">
                            <mxPoint x="310" y="440"/>
                        </Array>
                    </mxGeometry>
                </mxCell>
                <mxCell id="16" style="edgeStyle=none;html=1;entryX=0.5;entryY=1;entryDx=0;entryDy=0;" edge="1" parent="1" source="4" target="4">
                    <mxGeometry relative="1" as="geometry"/>
                </mxCell>
            </root>
        </mxGraphModel>
    </diagram>
</mxfile>